<?xml version="1.0" encoding="UTF-8" standalone="no"?>
<svg width="75px" height="75px" viewBox="0 0 75 75" version="1.1" xmlns="http://www.w3.org/2000/svg" xmlns:xlink="http://www.w3.org/1999/xlink" xmlns:sketch="http://www.bohemiancoding.com/sketch/ns">
    <!-- Generator: Sketch 3.4.4 (17249) - http://www.bohemiancoding.com/sketch -->
    <title>Oval 1 + icon</title>
    <desc>Created with Sketch.</desc>
    <defs></defs>
    <g id="Page-1" stroke="none" stroke-width="1" fill="none" fill-rule="evenodd" sketch:type="MSPage">
        <g id="inscription" sketch:type="MSArtboardGroup" transform="translate(-526.000000, -1280.000000)">
            <g id="form-inscription" sketch:type="MSLayerGroup" transform="translate(526.000000, 473.000000)">
                <g id="photo-upload" transform="translate(0.000000, 807.000000)" sketch:type="MSShapeGroup">
                    <g id="Oval-1-+-icon">
                        <circle id="Oval-1" fill="#179ED6" cx="37.5" cy="37.5" r="37.5"></circle>
                        <g id="icon" transform="translate(20.930233, 25.290698)" fill="#FFFFFF">
                            <g id="Group">
                                <path d="M2.81898715,2.80035202 L4.51041922,2.80035202 C5.6379743,2.80035202 5.6379743,0 6.76572827,0 L7.89348225,0 L7.89626683,0 L7.90462056,0 L7.91854345,0 L7.92868727,0 L7.9378366,0 L7.9623011,0 L7.9746328,0 L7.99173807,0 L8.01978274,0 L8.02614749,0 L8.06433599,0 L8.06513158,0 L8.10809364,0 L8.10869033,0 L8.15125459,0 L8.15662485,0 L8.19342105,0 L8.20873623,0 L8.23518972,0 L8.26502448,0 L8.27596389,0 L8.31614137,0 L8.3250918,0 L8.35532436,0 L8.38893819,0 L8.39351285,0 L8.43090575,0 L8.45636475,0 L8.46750306,0 L8.50310588,0 L8.52737148,0 L8.5379131,0 L8.57152693,0 L8.60156059,0 L8.60434517,0 L8.63597001,0 L8.66660037,0 L8.67913097,0 L8.69623623,0 L8.7248776,0 L8.75212668,0 L8.75968482,0 L8.77818237,0 L8.80304468,0 L8.82691248,0 L8.84302326,0 L8.849388,0 L8.87067013,0 L8.89075887,0 L8.90925643,0 L8.92656059,0 L8.92894737,0 L8.94247246,0 L8.95699204,0 L8.97011934,0 L8.98165545,0 L8.99179927,0 L9.0005508,0 L9.00771114,0 L9.01328029,0 L9.01745716,0 L9.01745716,0 L9.01984394,0 L9.02063953,0 L12.9673807,0 C14.0949357,0 14.0949357,2.80035202 15.2224908,2.80035202 L25.9347613,2.80035202 C25.9347613,2.18191543 26.4397644,1.68025073 27.0623164,1.68025073 L28.1900704,1.68025073 C28.8126224,1.68025073 29.3176255,2.18191543 29.3176255,2.80035202 L31.0090575,2.80035202 C32.5656365,2.80035202 33.8280447,4.05441497 33.8280447,5.60070403 L33.8280447,22.4030137 C33.8280447,23.9495004 32.5656365,25.2035633 31.0090575,25.2035633 L2.81898715,25.2035633 C1.2624082,25.2037609 0,23.9496979 0,22.4032113 L0,5.60090162 C0,4.05441497 1.2624082,2.80035202 2.81898715,2.80035202 L2.81898715,2.80035202 L2.81898715,2.80035202 Z M22.552295,5.60090162 C17.8823592,5.60090162 14.0951346,9.36309048 14.0951346,14.0021553 C14.0951346,18.64122 17.8821603,22.4034089 22.552295,22.4034089 C27.2222307,22.4034089 31.0094553,18.6414176 31.0094553,14.0021553 C31.0092564,9.3628929 27.2220318,5.60090162 22.552295,5.60090162 L22.552295,5.60090162 L22.552295,5.60090162 Z M6.76572827,8.40125363 L10.1485924,8.40125363 C10.7711444,8.40125363 11.2761475,7.89958894 11.2761475,7.28115234 L11.2761475,6.72120049 C11.2761475,6.10256632 10.7711444,5.6010992 10.1485924,5.6010992 L6.76572827,5.6010992 C6.14297736,5.6010992 5.63817319,6.1027639 5.63817319,6.72120049 L5.63817319,7.28115234 C5.6379743,7.89958894 6.14297736,8.40125363 6.76572827,8.40125363 L6.76572827,8.40125363 Z" id="Shape"></path>
                                <path d="M22.552295,7.8411042 C19.1276622,7.8411042 16.3504437,10.5999637 16.3504437,14.0019577 C16.3504437,17.4039517 19.1276622,20.1630087 22.552295,20.1630087 C25.9769278,20.1630087 28.7541463,17.4039517 28.7541463,14.0019577 C28.7541463,10.5999637 25.9769278,7.8411042 22.552295,7.8411042 L22.552295,7.8411042 L22.552295,7.8411042 Z" id="Shape"></path>
                            </g>
                        </g>
                    </g>
                </g>
            </g>
        </g>
    </g>
</svg>