<?xml version="1.0" encoding="UTF-8" standalone="no"?>
<svg width="19px" height="26px" viewBox="0 0 19 26" version="1.1" xmlns="http://www.w3.org/2000/svg" xmlns:xlink="http://www.w3.org/1999/xlink" xmlns:sketch="http://www.bohemiancoding.com/sketch/ns">
    <!-- Generator: Sketch 3.4.4 (17249) - http://www.bohemiancoding.com/sketch -->
    <title>noun_9868_cc</title>
    <desc>Created with Sketch.</desc>
    <defs></defs>
    <g id="Page-1" stroke="none" stroke-width="1" fill="none" fill-rule="evenodd" sketch:type="MSPage">
        <g id="annonce" sketch:type="MSArtboardGroup" transform="translate(-448.000000, -496.000000)" fill="#4FB589">
            <g sketch:type="MSLayerGroup" transform="translate(135.000000, 288.000000)" id="noun_9868_cc">
                <g transform="translate(313.000000, 208.000000)" sketch:type="MSShapeGroup">
                    <g id="Group">
                        <path d="M9.41783784,0 C4.22544595,0 0,4.23568317 0,9.44186139 C0,16.1743168 8.05856757,24.9296238 8.40210811,25.2985149 C8.66425676,25.5816832 9.03193243,25.7428317 9.41783784,25.7428317 C9.80271622,25.7428317 10.1703919,25.5819406 10.4333108,25.2985149 C10.7768514,24.9298812 18.8356757,16.1743168 18.8356757,9.44186139 C18.8354189,4.23542574 14.6102297,0 9.41783784,0 L9.41783784,0 Z M5.70051351,9.14453465 C5.70051351,7.08564356 7.36481081,5.41649505 9.41783784,5.41649505 C11.4708649,5.41649505 13.1351622,7.08512871 13.1351622,9.14453465 C13.1351622,11.2029109 11.4711216,12.8715446 9.41783784,12.8715446 C7.36506757,12.8712871 5.70051351,11.2026535 5.70051351,9.14453465 L5.70051351,9.14453465 Z" id="Shape"></path>
                    </g>
                </g>
            </g>
        </g>
    </g>
</svg>