<?xml version="1.0" encoding="UTF-8" standalone="no"?>
<svg width="83px" height="85px" viewBox="0 0 83 85" version="1.1" xmlns="http://www.w3.org/2000/svg" xmlns:xlink="http://www.w3.org/1999/xlink" xmlns:sketch="http://www.bohemiancoding.com/sketch/ns">
    <!-- Generator: Sketch 3.4.4 (17249) - http://www.bohemiancoding.com/sketch -->
    <title>logo</title>
    <desc>Created with Sketch.</desc>
    <defs>
        <path id="path-1" d="M0.031125,0.425 L82.5601,0.425 L82.5601,84.9687117 L0.031125,84.9687117"></path>
        <path id="path-3" d="M0.031125,0.425 L82.5601,0.425 L82.5601,84.9687117 L0.031125,84.9687117"></path>
    </defs>
    <g id="Page-1" stroke="none" stroke-width="1" fill="none" fill-rule="evenodd" sketch:type="MSPage">
        <g id="index.php" sketch:type="MSArtboardGroup" transform="translate(-40.000000, -10.000000)">
            <g id="header" sketch:type="MSLayerGroup">
                <g id="logo" transform="translate(40.000000, 10.000000)">
                    <g id="Group-3">
                        <mask id="mask-2" sketch:name="Clip 2" fill="white">
                            <use xlink:href="#path-1"></use>
                        </mask>
                        <g id="Clip-2"></g>
                        <path d="M1.2865,46.6394479 C-0.42900625,44.9149387 -0.42900625,42.0927301 1.2865,40.3676994 L38.1608063,3.30039877 C39.8763125,1.57588957 42.6837875,1.57588957 44.3992938,3.30039877 L81.2730813,40.3676994 C82.9891062,42.0927301 82.9891062,44.9149387 81.2730813,46.6394479 L44.3992938,83.7067485 C42.6837875,85.4312577 39.8763125,85.4312577 38.1608063,83.7067485 L1.2865,46.6394479" id="Fill-1" fill="#4FB589" sketch:type="MSShapeGroup" mask="url(#mask-2)"></path>
                    </g>
                    <path d="M61.1673688,52.2009509 C61.1673688,52.2009509 60.4774312,49.0809816 58.5233,48.6184356 C56.5691688,48.156411 50.3612875,46.3072699 48.17735,46.4230368 C48.17735,45.6142331 46.5676688,44.6385583 46.5676688,44.6385583 L46.5676688,39.4895399 C46.5676688,39.4895399 50.8214188,37.9871779 51.9709688,35.445 C53.1205188,32.9028221 54.1549063,30.6192945 54.1549063,29.2186196 C55.07465,29.2186196 57.4883938,27.9337117 57.4883938,25.0447546 C57.4883938,22.1557975 56.3388438,20.7692025 54.8448438,20.7692025 C55.7640688,18.3422699 57.7187188,4.36003067 47.1424437,1.58631902 C44.4988938,1.00852761 41.28005,0.777515337 41.28005,0.777515337 C41.28005,0.777515337 38.0612062,1.00852761 35.4171375,1.58631902 C24.8413813,4.36003067 26.7955125,18.3422699 27.7152563,20.7692025 C26.2207375,20.7692025 25.0711875,22.1557975 25.0711875,25.0447546 C25.0711875,27.9337117 27.48545,29.2186196 28.4051938,29.2186196 C28.4051938,30.6192945 29.4395813,32.9028221 30.5891313,35.445 C31.7386813,37.9871779 35.9919125,39.4895399 35.9919125,39.4895399 L35.9919125,44.6385583 C35.9919125,44.6385583 34.38275,45.6142331 34.38275,46.4230368 C32.1988125,46.3072699 25.9909313,48.156411 24.0368,48.6184356 C22.0826688,49.0809816 21.3927313,52.2009509 21.3927313,52.2009509 L19.4386,59.5964724 C27.48545,67.2235276 41.28005,67.1077607 41.28005,67.1077607 C41.28005,67.1077607 55.07465,67.2235276 63.1215,59.5964724 L61.1673688,52.2009509" id="Fill-4" fill="#E9CCAF" sketch:type="MSShapeGroup"></path>
                    <g id="Group-8">
                        <mask id="mask-4" sketch:name="Clip 6" fill="white">
                            <use xlink:href="#path-3"></use>
                        </mask>
                        <g id="Clip-6"></g>
                        <path d="M61.1673688,52.2009509 C61.1673688,52.2009509 60.4774312,49.0809816 58.5233,48.6184356 C56.5691688,48.156411 50.3612875,46.3072699 48.17735,46.4230368 C48.17735,46.0215031 48.9373188,50.4388957 41.3500813,50.4388957 C34.4527813,50.4388957 34.38275,46.0157669 34.38275,46.4230368 C32.1988125,46.3072699 25.9909313,48.156411 24.0368,48.6184356 C22.0826688,49.0809816 21.3927313,52.2009509 21.3927313,52.2009509 L19.4386,59.5964724 C27.48545,67.2235276 41.28005,67.1077607 41.28005,67.1077607 C41.28005,67.1077607 55.07465,67.2235276 63.1215,59.5964724 L61.1673688,52.2009509" id="Fill-5" fill="#357274" sketch:type="MSShapeGroup" mask="url(#mask-4)"></path>
                        <path d="M27.3142625,20.6002454 C27.3142625,20.6002454 30.0781625,20.4417178 29.525175,25.8394785 C29.525175,25.8394785 30.0781625,26.9507362 30.3935625,24.4106442 C30.7094812,21.8705521 31.2624688,19.2506748 31.1836188,17.5840491 C33.7893,17.5840491 44.2919125,17.2664724 48.6348875,12.5033436 C49.7403438,11.8687117 52.267175,13.1384969 52.267175,18.5362577 C52.030625,19.2178221 50.92465,19.2178221 50.92465,19.2178221 C50.92465,19.2178221 50.5298813,18.9330982 51.2405688,20.362454 C51.9512563,21.7912883 52.188325,23.545 52.267175,26.0814417 C52.267175,26.0814417 52.9778625,26.3953681 53.1360813,24.6489571 C53.2937813,22.902546 53.452,19.5682515 55.5840625,21.0768712 C55.8994625,20.4417178 57.3213563,9.40788344 52.030625,4.16865031 C46.7398938,-1.07058282 34.7370563,-0.593957055 30.2358625,4.24791411 C25.7346688,9.09030675 26.2088063,18.9330982 27.3142625,20.6002454" id="Fill-7" fill="#72523C" sketch:type="MSShapeGroup" mask="url(#mask-4)"></path>
                    </g>
                    <path d="M41.2515187,35.9070245 C37.2851562,35.9070245 36.7394312,33.942638 36.7394312,33.942638 L45.8206687,33.942638 C45.8206687,33.942638 45.2173625,35.9070245 41.2515187,35.9070245" id="Fill-9" fill="#FFFFFF" sketch:type="MSShapeGroup"></path>
                </g>
            </g>
        </g>
    </g>
</svg>